<svg id="Ebene_1" data-name="Ebene 1" xmlns="http://www.w3.org/2000/svg" viewBox="0 0 547.65 226.77"><defs><style>.cls-1{fill:#9a0737;}</style></defs><title>dbw_logos_RGB__alle</title><path d="M302.87,112.89a45.7,45.7,0,0,1-5.94,23.28,43.3,43.3,0,0,1-15,15.78A46,46,0,0,1,267,157.7a99.32,99.32,0,0,1-19.25,1.63H214.93V66.27h33.75a88.16,88.16,0,0,1,19.63,1.91,45.61,45.61,0,0,1,13.87,5.41,42.25,42.25,0,0,1,15.16,15.84Q302.87,99.39,302.87,112.89Zm-24.81-.19A34.15,34.15,0,0,0,274.71,97a23.34,23.34,0,0,0-10.59-10.22,27.54,27.54,0,0,0-7.53-2.47A75,75,0,0,0,245,83.64h-6.06v58.25H245a72.29,72.29,0,0,0,12.56-.78,27.42,27.42,0,0,0,7.81-2.84,23.11,23.11,0,0,0,9.63-10Q278.06,122,278.06,112.7Z"/><path d="M400.81,130.83a26.1,26.1,0,0,1-2.72,12.06,24.86,24.86,0,0,1-7.47,8.81,34.91,34.91,0,0,1-12.09,5.87,66.61,66.61,0,0,1-16.72,1.75H321.18V66.27h36.12a128.63,128.63,0,0,1,16.47.75,33.89,33.89,0,0,1,10.34,3.31A18.33,18.33,0,0,1,392,77.55a21.79,21.79,0,0,1-1,22.25,23.34,23.34,0,0,1-10.06,8v.5q9.12,1.81,14.47,7.5T400.81,130.83ZM370.06,92.58A10.27,10.27,0,0,0,368.9,88a7.19,7.19,0,0,0-4.09-3.44,19.85,19.85,0,0,0-6.53-1.09q-3.91-.09-11-.09h-2.25V103h3.75q5.69,0,9.69-.19a17.35,17.35,0,0,0,6.31-1.25,7.73,7.73,0,0,0,4.25-3.72A13.07,13.07,0,0,0,370.06,92.58Zm5.81,37.88a11.67,11.67,0,0,0-1.71-6.84,10.41,10.41,0,0,0-5.83-3.59,30.42,30.42,0,0,0-7.73-.87q-4.93-.06-10.29-.06h-5.24v23.19h1.75q10.1,0,14.47-.06a21.17,21.17,0,0,0,8-1.63,9.84,9.84,0,0,0,5.14-4.16A12.35,12.35,0,0,0,375.87,130.45Z"/><path d="M547.12,66.27l-25.06,93.06H495.45L478.81,98.7l-16.27,60.62H436L410.93,66.27H436l14.28,64.06,17.17-64.06h23.94l16.29,64.06,15-64.06Z"/><path d="M218,221.81h-2.47l-1.71-4.87h-7.55l-1.71,4.87h-2.36l6.35-17.45h3.1Zm-4.9-6.86L210,206.39,207,215Z"/><path d="M231.1,221.81h-2.2v-1.37a8,8,0,0,1-2,1.28,5.45,5.45,0,0,1-2.24.46,4.44,4.44,0,0,1-3.72-1.81,8.08,8.08,0,0,1-1.38-5,8.62,8.62,0,0,1,.47-3,6.84,6.84,0,0,1,1.28-2.22,5.44,5.44,0,0,1,4.06-1.83,7,7,0,0,1,1.83.22,8.53,8.53,0,0,1,1.68.67v-5.67h2.2Zm-2.2-3.22v-7.51a8.27,8.27,0,0,0-1.59-.55,7.24,7.24,0,0,0-1.54-.15,3.48,3.48,0,0,0-2.88,1.29,5.73,5.73,0,0,0-1,3.66,6.48,6.48,0,0,0,.8,3.55,2.83,2.83,0,0,0,2.56,1.21,4.76,4.76,0,0,0,1.9-.42A8,8,0,0,0,228.9,218.59Z"/><path d="M246.77,208.72l-5.3,13.09h-2.22L234,208.72h2.39l4.06,10.42,4-10.42Z"/><path d="M259.37,221.81h-2.19v-1.4l-.79.56a5.61,5.61,0,0,1-1,.57,6.61,6.61,0,0,1-1.27.45,6.88,6.88,0,0,1-1.68.18,4.19,4.19,0,0,1-3-1.17,4,4,0,0,1-1.23-3,4.14,4.14,0,0,1,.64-2.41,4.26,4.26,0,0,1,1.82-1.45,9.83,9.83,0,0,1,2.87-.72q1.68-.19,3.6-.28v-.34a2.61,2.61,0,0,0-.26-1.24,1.92,1.92,0,0,0-.76-.77,3.12,3.12,0,0,0-1.13-.36,9.68,9.68,0,0,0-1.37-.09,9.33,9.33,0,0,0-1.93.23,15.07,15.07,0,0,0-2.2.66h-.12V209q.64-.18,1.86-.39a14.05,14.05,0,0,1,2.4-.21,11.13,11.13,0,0,1,2.41.23,4.67,4.67,0,0,1,1.78.78,3.46,3.46,0,0,1,1.13,1.4,5.14,5.14,0,0,1,.39,2.12Zm-2.19-3.22v-3.65q-1,.06-2.37.18a12.28,12.28,0,0,0-2.16.34,3.55,3.55,0,0,0-1.54.84,2.42,2.42,0,0,0,.09,3.26,3.18,3.18,0,0,0,2.07.57,4.92,4.92,0,0,0,2.12-.45A9.53,9.53,0,0,0,257.18,218.59Z"/><path d="M274.56,221.81h-2.2v-7.46a12.82,12.82,0,0,0-.11-1.69,3.1,3.1,0,0,0-.39-1.24,1.78,1.78,0,0,0-.84-.73,3.62,3.62,0,0,0-1.43-.24,4.57,4.57,0,0,0-1.89.45,9.57,9.57,0,0,0-1.89,1.14v9.78h-2.2V208.72h2.2v1.45a9,9,0,0,1,2.13-1.34,5.62,5.62,0,0,1,2.26-.48,4.06,4.06,0,0,1,3.24,1.28,5.44,5.44,0,0,1,1.11,3.68Z"/><path d="M288.49,221a14.22,14.22,0,0,1-2.09.82,7.37,7.37,0,0,1-2.1.29,7.81,7.81,0,0,1-2.6-.42,5.32,5.32,0,0,1-2-1.26,5.65,5.65,0,0,1-1.32-2.13,8.79,8.79,0,0,1-.47-3,7,7,0,0,1,1.76-5,6.18,6.18,0,0,1,4.66-1.83,7.83,7.83,0,0,1,2.21.32,11.43,11.43,0,0,1,2,.77V212h-.12a8.42,8.42,0,0,0-2.08-1.21,5.7,5.7,0,0,0-2.09-.42,3.7,3.7,0,0,0-3,1.26,6.81,6.81,0,0,0,0,7.34,3.67,3.67,0,0,0,3,1.27,5.5,5.5,0,0,0,1.36-.18,6,6,0,0,0,1.24-.46,10.21,10.21,0,0,0,.9-.52q.42-.28.67-.48h.12Z"/><path d="M302.27,215.49h-9.65a5.57,5.57,0,0,0,.36,2.1,3.89,3.89,0,0,0,2.44,2.32,5.77,5.77,0,0,0,1.85.28,7.29,7.29,0,0,0,2.69-.53,6.6,6.6,0,0,0,1.93-1H302V221a18.16,18.16,0,0,1-2.27.79,9.26,9.26,0,0,1-2.44.32,7,7,0,0,1-5.09-1.76,6.65,6.65,0,0,1-1.83-5,7.2,7.2,0,0,1,1.75-5.1,6,6,0,0,1,4.61-1.89,5.3,5.3,0,0,1,4.09,1.55,6.22,6.22,0,0,1,1.44,4.4Zm-2.15-1.69a3.89,3.89,0,0,0-.87-2.68,3.37,3.37,0,0,0-2.62-.95,3.82,3.82,0,0,0-2.82,1,4.05,4.05,0,0,0-1.19,2.59Z"/><path d="M316.24,221.81H314v-1.37a8,8,0,0,1-2,1.28,5.45,5.45,0,0,1-2.24.46,4.44,4.44,0,0,1-3.72-1.81,8.08,8.08,0,0,1-1.38-5,8.62,8.62,0,0,1,.48-3,6.84,6.84,0,0,1,1.28-2.22,5.44,5.44,0,0,1,4.06-1.83,7,7,0,0,1,1.83.22,8.55,8.55,0,0,1,1.68.67v-5.67h2.2Zm-2.2-3.22v-7.51a8.27,8.27,0,0,0-1.6-.55,7.24,7.24,0,0,0-1.53-.15,3.48,3.48,0,0,0-2.88,1.29,5.73,5.73,0,0,0-1,3.66,6.48,6.48,0,0,0,.8,3.55,2.83,2.83,0,0,0,2.55,1.21,4.75,4.75,0,0,0,1.9-.42A8.05,8.05,0,0,0,314,218.59Z"/><path d="M340.34,206.42h-8.83v4.92h7.59v2.06h-7.59v8.4h-2.32V204.36h11.15Z"/><path d="M345.18,206.53h-2.49v-2.29h2.49ZM345,221.81h-2.2V208.72H345Z"/><path d="M360.92,215.17a8.85,8.85,0,0,1-.46,3,6.6,6.6,0,0,1-1.25,2.2,5.67,5.67,0,0,1-1.83,1.39,5.14,5.14,0,0,1-2.19.46,6.46,6.46,0,0,1-1.95-.26,9.12,9.12,0,0,1-1.64-.71l-.14.61H349.4V203.57h2.2v6.52a9.27,9.27,0,0,1,2-1.25,5.48,5.48,0,0,1,2.34-.49,4.34,4.34,0,0,1,3.66,1.78A8.22,8.22,0,0,1,360.92,215.17Zm-2.27.06a6.68,6.68,0,0,0-.77-3.56,2.74,2.74,0,0,0-2.5-1.21,5,5,0,0,0-1.95.42,8.12,8.12,0,0,0-1.83,1.07v7.5a9.55,9.55,0,0,0,1.61.59,6.48,6.48,0,0,0,1.53.16,3.59,3.59,0,0,0,2.87-1.2A5.68,5.68,0,0,0,358.65,215.22Z"/><path d="M375.32,215.49h-9.65a5.57,5.57,0,0,0,.36,2.1,3.89,3.89,0,0,0,2.44,2.32,5.77,5.77,0,0,0,1.85.28,7.29,7.29,0,0,0,2.69-.53,6.6,6.6,0,0,0,1.93-1h.12V221a18.16,18.16,0,0,1-2.27.79,9.26,9.26,0,0,1-2.44.32,7,7,0,0,1-5.09-1.76,6.65,6.65,0,0,1-1.83-5,7.2,7.2,0,0,1,1.75-5.1,6,6,0,0,1,4.61-1.89,5.3,5.3,0,0,1,4.09,1.55,6.22,6.22,0,0,1,1.44,4.4Zm-2.15-1.69a3.89,3.89,0,0,0-.87-2.68,3.37,3.37,0,0,0-2.62-.95,3.82,3.82,0,0,0-2.82,1,4.05,4.05,0,0,0-1.19,2.59Z"/><path d="M386.83,211.12h-.12a7.92,7.92,0,0,0-1-.17,9.71,9.71,0,0,0-1.1-.05,4.53,4.53,0,0,0-2,.45,9.09,9.09,0,0,0-1.83,1.17v9.3h-2.2V208.72h2.2v1.93a10.85,10.85,0,0,1,2.32-1.49,5,5,0,0,1,2-.44q.57,0,.83,0l.77.11Z"/><path d="M410,206.42h-6.24v15.39h-2.32V206.42h-6.24v-2.06H410Z"/><path d="M420.48,215.49h-9.65a5.57,5.57,0,0,0,.36,2.1,3.89,3.89,0,0,0,2.44,2.32,5.76,5.76,0,0,0,1.85.28,7.3,7.3,0,0,0,2.69-.53,6.63,6.63,0,0,0,1.93-1h.12V221a18.11,18.11,0,0,1-2.28.79,9.26,9.26,0,0,1-2.44.32,7,7,0,0,1-5.09-1.76,6.64,6.64,0,0,1-1.83-5,7.2,7.2,0,0,1,1.75-5.1,6,6,0,0,1,4.61-1.89A5.3,5.3,0,0,1,419,209.9a6.23,6.23,0,0,1,1.44,4.4Zm-2.14-1.69a3.9,3.9,0,0,0-.87-2.68,3.36,3.36,0,0,0-2.62-.95,3.82,3.82,0,0,0-2.82,1,4,4,0,0,0-1.19,2.59Z"/><path d="M433.51,221a14.22,14.22,0,0,1-2.09.82,7.37,7.37,0,0,1-2.1.29,7.81,7.81,0,0,1-2.6-.42,5.32,5.32,0,0,1-2-1.26,5.65,5.65,0,0,1-1.32-2.13,8.79,8.79,0,0,1-.47-3,7,7,0,0,1,1.76-5,6.18,6.18,0,0,1,4.66-1.83,7.83,7.83,0,0,1,2.21.32,11.43,11.43,0,0,1,2,.77V212h-.12a8.42,8.42,0,0,0-2.08-1.21,5.7,5.7,0,0,0-2.09-.42,3.7,3.7,0,0,0-3,1.26,6.81,6.81,0,0,0,0,7.34,3.67,3.67,0,0,0,3,1.27,5.5,5.5,0,0,0,1.36-.18,6,6,0,0,0,1.24-.46,10.21,10.21,0,0,0,.9-.52q.42-.28.67-.48h.12Z"/><path d="M447.28,221.81h-2.2v-7.46a12.82,12.82,0,0,0-.11-1.69,3.11,3.11,0,0,0-.39-1.24,1.78,1.78,0,0,0-.84-.73,3.62,3.62,0,0,0-1.43-.24,4.57,4.57,0,0,0-1.89.45,9.55,9.55,0,0,0-1.89,1.14v9.78h-2.2V203.57h2.2v6.6a9,9,0,0,1,2.13-1.34,5.62,5.62,0,0,1,2.26-.48,4.06,4.06,0,0,1,3.24,1.28,5.44,5.44,0,0,1,1.11,3.68Z"/><path d="M462.47,221.81h-2.2v-7.46a12.82,12.82,0,0,0-.11-1.69,3.09,3.09,0,0,0-.39-1.24,1.78,1.78,0,0,0-.84-.73,3.61,3.61,0,0,0-1.43-.24,4.57,4.57,0,0,0-1.89.45,9.59,9.59,0,0,0-1.89,1.14v9.78h-2.2V208.72h2.2v1.45a9,9,0,0,1,2.13-1.34,5.62,5.62,0,0,1,2.26-.48,4.06,4.06,0,0,1,3.24,1.28,5.44,5.44,0,0,1,1.11,3.68Z"/><path d="M477.88,215.27a7.34,7.34,0,0,1-1.64,5.05,6.16,6.16,0,0,1-8.81,0,8.63,8.63,0,0,1,0-10.11,6.15,6.15,0,0,1,8.81,0A7.37,7.37,0,0,1,477.88,215.27Zm-2.27,0a6,6,0,0,0-1-3.78,3.73,3.73,0,0,0-5.55,0,7.6,7.6,0,0,0,0,7.51,3.66,3.66,0,0,0,5.54,0A5.93,5.93,0,0,0,475.6,215.27Z"/><path d="M483.52,221.81h-2.2V203.57h2.2Z"/><path d="M499,215.27a7.34,7.34,0,0,1-1.64,5.05,6.16,6.16,0,0,1-8.81,0,8.63,8.63,0,0,1,0-10.11,6.15,6.15,0,0,1,8.81,0A7.37,7.37,0,0,1,499,215.27Zm-2.27,0a6,6,0,0,0-1-3.78,3.73,3.73,0,0,0-5.55,0,7.6,7.6,0,0,0,0,7.51,3.66,3.66,0,0,0,5.54,0A5.93,5.93,0,0,0,496.76,215.27Z"/><path d="M513.07,220.32q0,3.33-1.51,4.89a6.22,6.22,0,0,1-4.65,1.56,13.79,13.79,0,0,1-2-.15,15.62,15.62,0,0,1-2-.42V224H503a17.49,17.49,0,0,0,1.71.52,9.13,9.13,0,0,0,2.34.31,5.49,5.49,0,0,0,1.86-.27,2.63,2.63,0,0,0,1.74-1.85,5.46,5.46,0,0,0,.18-1.44V220a8.51,8.51,0,0,1-1.9,1.19,5.86,5.86,0,0,1-2.32.39,4.55,4.55,0,0,1-3.72-1.69,7.39,7.39,0,0,1-1.38-4.78,8.06,8.06,0,0,1,.48-2.91,6.59,6.59,0,0,1,1.3-2.12,5.28,5.28,0,0,1,1.85-1.3,5.52,5.52,0,0,1,2.17-.46,6.75,6.75,0,0,1,1.9.23,8.37,8.37,0,0,1,1.62.7l.14-.56h2.06Zm-2.2-2.11v-7.14a8.58,8.58,0,0,0-1.64-.57,6.88,6.88,0,0,0-1.51-.17,3.57,3.57,0,0,0-2.86,1.22,5.3,5.3,0,0,0-1,3.54,5.94,5.94,0,0,0,.77,3.34,2.88,2.88,0,0,0,2.57,1.14,5.38,5.38,0,0,0,1.93-.37A7,7,0,0,0,510.87,218.21Z"/><path d="M519.78,206.53h-2.49v-2.29h2.49Zm-.14,15.29h-2.2V208.72h2.2Z"/><path d="M535,215.49h-9.65a5.57,5.57,0,0,0,.36,2.1,3.89,3.89,0,0,0,2.44,2.32,5.77,5.77,0,0,0,1.85.28,7.29,7.29,0,0,0,2.69-.53,6.6,6.6,0,0,0,1.93-1h.12V221a18.16,18.16,0,0,1-2.27.79,9.26,9.26,0,0,1-2.44.32,7,7,0,0,1-5.09-1.76,6.65,6.65,0,0,1-1.83-5,7.2,7.2,0,0,1,1.75-5.1,6,6,0,0,1,4.61-1.89,5.3,5.3,0,0,1,4.09,1.55,6.22,6.22,0,0,1,1.44,4.4Zm-2.15-1.69a3.89,3.89,0,0,0-.87-2.68,3.37,3.37,0,0,0-2.62-.95,3.82,3.82,0,0,0-2.82,1,4.05,4.05,0,0,0-1.19,2.59Z"/><path d="M547.65,218a3.57,3.57,0,0,1-1.48,2.94,6.46,6.46,0,0,1-4.05,1.15,9.71,9.71,0,0,1-2.67-.35,11.81,11.81,0,0,1-2-.76v-2.47h.12a8.85,8.85,0,0,0,2.32,1.25,7.19,7.19,0,0,0,2.45.46,4.6,4.6,0,0,0,2.27-.47,1.58,1.58,0,0,0,.82-1.48,1.49,1.49,0,0,0-.44-1.17,4,4,0,0,0-1.71-.68l-1.23-.25q-.76-.14-1.38-.3a4.57,4.57,0,0,1-2.44-1.34,3.33,3.33,0,0,1-.72-2.17,3.55,3.55,0,0,1,.33-1.52,3.68,3.68,0,0,1,1-1.28,4.83,4.83,0,0,1,1.67-.87,7.44,7.44,0,0,1,2.27-.32,10.19,10.19,0,0,1,2.37.29,8.91,8.91,0,0,1,2,.7v2.36H547a7.86,7.86,0,0,0-2.05-1,7.07,7.07,0,0,0-2.37-.43,4.15,4.15,0,0,0-2,.46,1.63,1.63,0,0,0-.33,2.6,3.93,3.93,0,0,0,1.59.67c.41.09.86.19,1.37.28s.92.18,1.26.26a4.68,4.68,0,0,1,2.37,1.21A3.18,3.18,0,0,1,547.65,218Z"/><path class="cls-1" d="M123.12,116.42c.2,7.08,1.81,17.75,13.47,28.62,32.51,30.32,127.06,45.58,281.73,45.58q58.67,0,128.87-2.93l-.1-2.36C316,195,178.45,180.86,138.2,143.32c-11-10.27-12.53-20.3-12.71-27-.39-14,16.54-40,54.64-64.07,29.47-18.62,80.43-41.71,158.16-48.75q20-1.52,41.16-2.26Q349.27-.23,316.49-.07C136.79.85-.93,53.57-.07,117.67c.62,45.83,74.2,84.12,182.58,100.81C107.35,193.85,69.67,159.58,69.59,128.7,69.46,73.35,152.74,27.84,283.28,9.44,235,19.87,201,36.33,178.85,50.29,139.77,75,122.7,101.3,123.12,116.42Z"/></svg>